<svg xmlns="http://www.w3.org/2000/svg" viewBox="0 0 800 440" fill="none" stroke-linecap="round" stroke-linejoin="round"><rect x="120" y="60" width="560" height="240" rx="16" stroke="#27272a" stroke-width="1.5"/><rect x="120" y="60" width="560" height="28" rx="16" stroke="#71717a" stroke-width="1.5"/><circle cx="138" cy="74" r="2.5" stroke="#71717a" stroke-width="1.5"/><circle cx="150" cy="74" r="2.5" stroke="#71717a" stroke-width="1.5"/><circle cx="162" cy="74" r="2.5" stroke="#71717a" stroke-width="1.5"/><circle cx="400" cy="190" r="36" stroke="#f59e0b" stroke-width="1.5"/><path d="M391 176 L391 204 L415 190 Z" stroke="#f59e0b" stroke-width="1.5" fill="#fef3c7"/><path d="M120 350 L680 350" stroke="#27272a" stroke-width="1.5"/><path d="M120 350 L680 350" stroke="#71717a" stroke-width="1.5" stroke-dasharray="0 0"/><circle cx="120" cy="350" r="4" stroke="#71717a" stroke-width="1.5" fill="#ffffff"/><circle cx="680" cy="350" r="4" stroke="#71717a" stroke-width="1.5" fill="#ffffff"/><path d="M220 350 L220 310" stroke="#71717a" stroke-width="1.5"/><circle cx="220" cy="306" r="6" stroke="#f59e0b" stroke-width="1.5" fill="#ffffff"/><rect x="160" y="200" width="120" height="72" rx="10" stroke="#27272a" stroke-width="1.5" fill="#ffffff"/><path d="M176 224 L264 224" stroke="#71717a" stroke-width="1.5"/><path d="M176 238 L252 238" stroke="#71717a" stroke-width="1.5"/><path d="M176 252 L232 252" stroke="#71717a" stroke-width="1.5"/><path d="M370 350 L370 300" stroke="#71717a" stroke-width="1.5"/><circle cx="370" cy="296" r="6" stroke="#f59e0b" stroke-width="1.5" fill="#f59e0b"/><rect x="310" y="196" width="130" height="78" rx="10" stroke="#f59e0b" stroke-width="1.5" fill="#fef3c7"/><path d="M328 220 L422 220" stroke="#f59e0b" stroke-width="1.5"/><path d="M328 236 L408 236" stroke="#f59e0b" stroke-width="1.5"/><path d="M328 252 L388 252" stroke="#f59e0b" stroke-width="1.5"/><path d="M510 350 L510 318" stroke="#71717a" stroke-width="1.5"/><circle cx="510" cy="314" r="6" stroke="#f59e0b" stroke-width="1.5" fill="#ffffff"/><rect x="452" y="214" width="120" height="68" rx="10" stroke="#27272a" stroke-width="1.5" fill="#ffffff"/><path d="M468 236 L556 236" stroke="#71717a" stroke-width="1.5"/><path d="M468 250 L542 250" stroke="#71717a" stroke-width="1.5"/><path d="M610 350 L610 306" stroke="#71717a" stroke-width="1.5"/><circle cx="610" cy="302" r="6" stroke="#f59e0b" stroke-width="1.5" fill="#ffffff"/><rect x="560" y="200" width="110" height="72" rx="10" stroke="#27272a" stroke-width="1.5" fill="#ffffff"/><path d="M576 224 L654 224" stroke="#71717a" stroke-width="1.5"/><path d="M576 238 L642 238" stroke="#71717a" stroke-width="1.5"/><path d="M576 252 L620 252" stroke="#71717a" stroke-width="1.5"/><path d="M180 390 L340 390" stroke="#71717a" stroke-width="1.5"/><path d="M180 390 L240 390" stroke="#f59e0b" stroke-width="1.5"/><circle cx="240" cy="390" r="4" stroke="#f59e0b" stroke-width="1.5" fill="#f59e0b"/></svg>